<?xml version="1.0" encoding="utf-8"?>
<!-- Generator: Adobe Illustrator 27.5.0, SVG Export Plug-In . SVG Version: 6.00 Build 0)  -->
<svg version="1.1" xmlns="http://www.w3.org/2000/svg" xmlns:xlink="http://www.w3.org/1999/xlink" x="0px" y="0px"
	 viewBox="0 0 500 500" style="enable-background:new 0 0 500 500;" xml:space="preserve">
<g id="BACKGROUND">
	<rect style="fill:#FFF2F0;" width="500" height="500"/>
</g>
<g id="OBJECTS">
	<path style="fill:#FF505C;" d="M255.894,113.473c-3.972,0.165-7.907,0.46-11.778,0.862c-46.23,4.792-91.2,24.844-117.662,60.786
		c-46.859,63.645-21.779,171.61,64.945,203.287c19.399,7.086,40.172,9.474,59.962,7.716c42.762-3.799,86.936-24.856,114.217-54.965
		c19.086-21.064,31.338-48.57,31.313-77.831c-0.021-24.83-8.817-50.034-22.672-72.244c-13.869-22.233-32.599-43.47-56.632-55.857
		C298.373,115.323,276.619,112.614,255.894,113.473z"/>
	<g>
		<path style="fill:none;" d="M155.462,209.981c0.111,0.001,0.227,0.003,0.34,0.005
			C155.587,209.978,155.462,209.981,155.462,209.981z"/>
		<g>
			<path style="fill:#182B33;" d="M306.083,130.564c2.481-13.703,3.703-27.327,3.074-35.121c-0.465-5.75-1.93-8.325-4.628-5.434
				c-5.917,6.339-19.506,17.404-32.686,33.923c1.418,7.216,4.246,17.23,8.518,26.086
				C288.104,142.988,297.36,135.986,306.083,130.564z"/>
			<path style="fill:#182B33;" d="M352.975,174.652c14.826-16.171,24.755-51.166,22.582-66.161
				c-0.846-5.824-3.508-8.629-8.415-6.162c-10.716,5.389-35.278,14.254-59.156,28.603c-0.055,0.159-0.153,0.304-0.307,0.398
				c-8.997,5.512-18.651,12.803-26.628,20.084c3.67,7.233,8.334,13.523,14.018,16.598c4.917,2.659,8.655,6.387,10.813,10.78
				c1.214,2.471,2.008,5.016,2.389,7.615C325.706,186.896,343.871,184.575,352.975,174.652z"/>
			<path style="fill:#182B33;" d="M309.556,206.13c-2.548-0.832-4.986-1.678-7.338-2.53c2.195-2.3,3.856-5.317,4.658-9.152
				c-0.125-0.159-0.19-0.364-0.155-0.58c0.801-4.979,0.065-9.829-2.186-14.415c-2.02-4.112-5.54-7.612-10.18-10.122
				c-4.464-2.414-9.893-8.038-14.697-17.217c-0.151-0.288-0.3-0.582-0.45-0.877c-3.645-7.196-6.894-16.477-9.031-28.018
				c-0.453-1.409-0.883-2.668-1.268-3.738c0.033-0.058,0.353-0.416,0.353-0.416c1.532-2.975,1.983-6.68,0.367-10.604
				c0.203-0.322,0.38-0.653,0.532-0.991c0.009-0.018,0.018-0.027,0.018-0.045c0.009-0.009,0.009-0.009,0.009-0.009
				c0.823-1.853,0.931-3.892,0.777-5.661c-0.043-0.78-0.163-1.32-0.163-1.32s0,0.004,0,0.004c-0.312-1.893-0.837-3.234-0.837-3.234
				s-0.681-1.811-2.353-1.937c-0.713-0.094-1.618,0.129-2.74,0.953c-0.039-0.137-0.132-0.442-0.292-0.858
				c-0.279-0.817-0.772-2.226-1.567-4.411c0,0,0,0,0,0l0-0.001c-0.715-1.966-1.671-4.55-2.947-7.922
				c-1.335-3.537-3.563-4.739-6.051-4.789c-4.659-0.169-10.273,3.811-12.635,4.11c-3.598,0.454-9.181,0.463-16.643,9.056
				c-0.041,0.047-0.089,0.094-0.132,0.141c-2.291,1.142-4.152,2.757-5.657,4.609c-0.054,0.066-0.116,0.127-0.169,0.194
				c-3.856,4.87-5.257,11.289-5.175,15.115c0.057,2.875,0.561,4.91,1.021,6.195c0,0-0.001,0.002-0.001,0.002
				s-1.045,2.107,1.89,3.358c0.006,0.01,0.012,0.019,0.018,0.029l1.663,2.826c-0.067,0.026-0.127,0.055-0.192,0.082
				c-1.452,0.603-2.39,1.466-2.39,1.466s1.189,1.578,4.182,2.156c0.828,6.641-4.216,11.001-3.971,15.825
				c0.253,4.978,4.305,14.601-4.136,15.445c0,0,7.175,2.279,9.876-4.051c2.701-6.331-4.332-6.562-3.545-13.505
				c0.396-3.492,1.445-5.439,2.392-6.529c-0.141,2.428-0.076,4.803,1.471,7.502c1.185,2.079,3.362,3.163,5.586,3.927
				c1.649,0.575,3.329,0.97,4.66,1.455c0.434,0.163,0.829,0.336,1.17,0.53c0.935,0.534,1.834,0.962,2.716,1.255
				c0.473,0.163,0.936,0.282,1.394,0.373c0.588,3.999,0.629,11.379,0.648,12.287c0.022,1.035-1.937,3.221-3.121,3.179
				c-2.868-0.102-5.284,1.402-7.227,3.46c-4.586,4.86-6.94,11.844-8.688,18.154c-0.141,0.508-0.275,1.024-0.411,1.538
				c-1.025,1.429-2.077,2.796-3.13,4.01c-4.132,4.782-9.715,6.242-9.715,6.242s-11.558-3.642-17.48-6.643
				c-5.913-2.992-12.173-8.878-14.363-8.958c-1.599-0.059-7.638-1.387-12.77-2.447c-0.004-0.001-0.007-0.002-0.011-0.003
				c-7.255-1.688-11.275-2.85-11.275-2.85v0c-1.447-0.626-2.275-1.139-2.275-1.139s-9.537,1.407-16.99,4.648
				c0,0,3.085,1.399,8.092,1.199l-0.015,0.004l-6.883,3.063c0,0,4.292,0.57,8.744,0c0,0,0.098,0.018,0.294,0.045h0.009
				c1.06,0.142,4.782,0.472,9.421-1.095c0,0,3.802,0.053,6.964,3.099c0.694,0.668,1.362,1.487,1.95,2.484
				c0,0-3.099,2.876-5.521,3.722c-0.196,0.071-0.392,0.134-0.579,0.169c-2.484,0.543-5.405,0.65-5.405,0.65s-1.71,0.81-2.965,2.386
				c-0.018,0.009-0.027,0.018-0.027,0.018c-1.015,1.273-1.728,3.054-1.006,5.316c0,0,2.769-2.351,5.859-3.874
				c1.068-0.525,2.173-0.953,3.214-1.149c4.052-0.757,6.269,0.223,8.264,0.329c0.383,0.018,0.962-0.232,1.683-0.659
				c3.072-1.79,8.602-6.598,11.229-6.011c2.021,0.454,8.914,9.403,17.079,16.696c0,0,0.009,0.009,0.036,0.018
				c4.898,4.381,10.249,8.148,15.289,9.118c0,0,3.241-1.095,7.578-3.731h0.009c0.009-0.009,0.009-0.009,0.009-0.009
				c1.074-0.652,2.219-1.412,3.396-2.26c0,0.001,0,0.009,0,0.009c3.936-2.499,6.564-5.445,7.575-6.682
				c-0.103-0.114-0.207-0.229-0.311-0.345c-1.605-1.776-3.58-3.961-4.657-6.721h-0.012l-0.182-0.508
				c-0.629-1.845-0.747-3.731-0.353-5.605c1.117-5.294,3.215-6.49,6.392-8.301c1.595-0.909,3.58-2.041,5.925-4.015
				c6.666-5.618,8.946-11.087,8.969-11.142c0.156-0.383,0.594-0.568,0.977-0.412c0.383,0.156,0.568,0.592,0.413,0.976
				c-0.096,0.236-2.42,5.85-9.393,11.726c-2.45,2.062-4.501,3.231-6.148,4.17c-3.024,1.724-4.689,2.673-5.667,7.307
				c-0.324,1.538-0.253,3.025,0.216,4.54l0.098,0.273c0.922,2.709,2.926,4.926,4.536,6.707c1.117,1.236,1.999,2.212,2.296,3.102
				c0.14,0.399,0.229,0.894,0.26,1.459c0.194,3.039-1.143,7.965-2.806,10.339c-0.59,0.845-2.071,1.729-4.314,3.066
				c-2.649,1.581-6.276,3.745-9.445,6.604c-0.143,0.129-0.323,0.193-0.502,0.193c-0.007,0-0.014-0.004-0.021-0.004
				c-1.068,1.047-2.127,2.185-3.141,3.454c-14.79-24.046-52.559-21.023-52.559-21.023s0.125-0.003,0.34,0.005
				c-0.113-0.002-0.229-0.004-0.34-0.005c0.089,2.496,4.605,10.424,6.477,13.611c-2.301,3.54-5.232,6.703-2.091,11.022
				c2.785,3.83,4.859,7.462,8.887,11.582l-5.921,5.742c-0.972,0.926-1.974,1.894-3.012,2.921l-0.063,0.061c0.001,0,0.001,0,0.002,0
				c-2.306,2.283-4.745,4.804-7.217,7.516c0-0.002,0-0.004,0.001-0.006c0,0-7.122,7.505-11.637,14.255c0,0,0.005,0.002,0.006,0.002
				c-4.879,6.791-9.129,14.106-11.779,21.514c-0.694,1.146-1.039,2.296-1.101,3.407c-0.09,0.314-0.196,0.627-0.28,0.941
				c-0.045,0.178-0.098,0.561-0.16,1.131c0,0,0,0.009,0,0.018c-0.81,7.694-2.627,48.762-1.523,72.92
				c0,0.009-0.009,0.018-0.009,0.027c-0.142,0.822-3.158,17.964-1.291,26.773c0,0.157,0.01,7.552,0.962,11.499
				c0,0,0.009,0.027,0.018,0.08c0.018,0.045,0.027,0.089,0.036,0.134c0.018,0.062,0.045,0.151,0.071,0.24
				c0.075,0.255,0.184,0.598,0.329,0.98c0.091,0.241,0.198,0.498,0.318,0.759c1.191,2.716,3.043,4.423,4.118,4.646
				c1.354,0.285,7.07-5.147,11.184-17.186c0.089-0.258,0.169-0.508,0.249-0.757c0.009-0.009,0.009-0.009,0.009-0.009
				c3.891-11.514,4.657-17.168,4.871-19.474c0.191-2.033-3.716-4.801-4.829-5.546c-0.139-1.071-0.165-2.469,0.101-4.231
				c0.098-0.614,0.222-1.273,0.392-1.977c1.523-6.251,8.272-21.434,10.125-35.262c1.861-13.838,0.846-22.11,3.882-26.999
				c1.425-2.297,9.136-9.457,16.91-16.42c0.009-0.009,0.018-0.009,0.018-0.009v-0.009c1.135-1.015,2.271-2.026,3.39-3.016
				l14.268-12.433c0,0-15.182,25.645-15.182,56.687c0,0,0.525,1.906,2.137,4.621c0.187,0.303,0.374,0.623,0.579,0.935
				c0.009,0.018,0.018,0.027,0.027,0.036c0.917,1.425,2.119,3.01,3.669,4.63c5.058,5.298,38.13,27.907,50.275,34.318
				c1.808,0.953,3.393,1.897,4.817,2.814c8.157,5.254,9.649,6.875,23.223,12.662l-0.001-0.003c1.471,0.698,3.067,1.434,4.489,2.042
				c0.009,0,0.018,0.009,0.027,0.009c2.36,1.006,4.23,1.665,4.23,1.202c0-1.238,2.698-4.043-4.728-17.711
				c-1.523-2.796-3.072-5.263-4.595-7.4c-0.009-0.027-0.027-0.053-0.045-0.071c-1.122-1.585-2.217-3.001-3.259-4.248
				c-0.036-0.036-0.053-0.053-0.053-0.053c-4.363-5.191-7.738-7.462-7.738-7.462c-4.55,0.169-8.281,3.339-8.281,3.339l0.002,0.004
				c-0.706-0.029-1.447-0.126-2.068-0.36c-1.799-0.677-10.908-29.305-32.003-35.547c0,0,5.41-6.176,11.952-14.873
				c0,0,0,0.003,0,0.003s0.016-0.023,0.041-0.058c1.196-1.591,2.425-3.255,3.671-4.992c0.018-0.018,0.036-0.036,0.045-0.053
				c0.062-0.071,0.08-0.098,0.08-0.098c2.529-3.517,5.102-7.293,7.498-11.14c0.549-0.878,1.066-1.719,1.572-2.547
				c0.044-0.072,0.087-0.141,0.13-0.21c0.058-0.095,0.118-0.192,0.175-0.287c0.025-0.042,0.054-0.088,0.079-0.129l0,0
				c6.007-0.806,9.621-3.358,9.621-3.358c9.948-11.498,9.152-30.827,8.233-39.259c-0.001-0.009-0.001-0.026-0.001-0.026
				s-0.001,0.006-0.001,0.008c-0.281-2.569-0.572-4.133-0.572-4.133s-0.011-0.008-0.012-0.009l0.01,0.005
				c0,0,1.086-14.648,6.242-27.497c1.068-2.657,2.184-5.092,3.285-7.305c5.324,13.163,11.405,22.594,17.784,29.135
				c-0.387-6.193-1.057-12.855-2.041-18.786c-2.494-15.036-8.111-23.355-8.168-23.438c-0.234-0.341-0.147-0.808,0.193-1.043
				c0.341-0.233,0.808-0.147,1.043,0.193c0.237,0.346,5.589,8.697,8.412,24.042c3.607,19.607,2.059,39.35,2.059,39.35
				c-0.078,0.651-0.175,1.184-0.296,1.547c-1.291,3.882-8.549,7.088-9.279,8.611c-0.125,0.249-0.214,0.517-0.276,0.819
				c-0.338,1.478-0.169,3.758-1.3,9.189c-0.036,0.187-0.08,0.374-0.125,0.561c-1.46,6.26-5.441,11.077-5.441,11.077
				c5.85,0.962,8.21-5.343,8.21-5.343s0-2.137,0.73-4.835c0.73-2.698,3.375-3.989,3.375-3.989c0.659,0.445,1.273,1.069,1.834,1.799
				c0.089,0.107,0.16,0.214,0.232,0.32c0.116,0.16,0.223,0.33,0.338,0.49c2.467,3.802,3.731,9.537,3.731,9.537
				c0.223,9.733,3.651,12.315,4.666,12.039c1.015-0.285,0.561-9.056,0.561-9.056c1.852,8.148,5.565,10.009,5.565,10.009l0.401-1.46
				c0,0,1.006,0.169,1.122-0.677c0.107-0.846,0.953-12.039,0.953-12.039c-1.915-2.475-4.274-9.279-4.274-9.279
				c0.784,0.32,1.523,0.703,2.199,1.113c0,0,0,0,0.009,0.009c0.009,0,0.035,0.018,0.071,0.036c2.377,1.46,3.963,3.179,3.963,3.179
				c1.968,4.942,5.12,4.942,5.12,4.942c-0.285-3.482-3.152-8.21-3.152-8.21s-5.396-3.713-6.18-4.951
				c-0.691-1.079-3.854-8.641-4.132-13.697c-0.151-0.164,0.764-5.473,1.673-9.767c1.95-9.202,4.896-23.108,4.746-25.98
				c-0.145-2.667-1.973-6.943-4.286-12.357c-1.232-2.882-2.629-6.149-3.99-9.692c-1.799-4.676-2.822-11.097-3.725-16.762
				l-0.296-1.846c-0.066-0.409,0.212-0.794,0.62-0.86c0.415-0.068,0.794,0.211,0.86,0.621l0.296,1.849
				c0.892,5.592,1.902,11.93,3.645,16.46c1.352,3.517,2.742,6.771,3.969,9.641c2.372,5.55,4.246,9.935,4.405,12.868
				c0.146,2.791-2.2,14.176-4.193,23.612c18.651,8.118,37.068-2.293,44.714-12.11c2.974-3.811,5.031-7.079,5.966-9.991
				C344.089,220.43,335.709,214.678,309.556,206.13z"/>
		</g>
	</g>
</g>
</svg>
